<?xml version="1.0" standalone="no"?>
<!DOCTYPE svg PUBLIC "-//W3C//DTD SVG 20010904//EN"
 "http://www.w3.org/TR/2001/REC-SVG-20010904/DTD/svg10.dtd">
<svg version="1.0" xmlns="http://www.w3.org/2000/svg"
 width="575.000000pt" height="575.000000pt" viewBox="0 0 575.000000 575.000000"
 preserveAspectRatio="xMidYMid meet">
<metadata>
Created by potrace 1.11, written by Peter Selinger 2001-2013
</metadata>
<g transform="translate(0.000000,575.000000) scale(0.100000,-0.100000)"
fill="#000000" stroke="none">
<path d="M2686 5679 c-130 -32 -285 -147 -354 -262 -82 -137 -117 -316 -108
-562 6 -195 21 -312 92 -749 30 -186 54 -340 52 -341 -2 -2 -32 31 -68 73
-409 481 -653 707 -885 823 -229 113 -413 117 -622 14 -220 -109 -270 -211
-308 -628 -29 -315 -46 -368 -255 -782 -177 -351 -205 -430 -205 -570 0 -97 1
-103 43 -189 76 -158 200 -259 381 -308 64 -18 104 -21 251 -21 182 0 267 9
665 72 244 39 390 53 490 49 l80 -3 -135 -101 c-593 -446 -884 -867 -841
-1217 18 -153 69 -261 153 -328 217 -171 1203 -480 1835 -574 163 -24 217 -21
293 17 89 46 188 145 227 228 57 120 58 138 56 575 -2 220 1 427 5 460 l7 60
50 -84 c147 -246 432 -524 731 -712 202 -128 452 -229 523 -213 40 10 44 15
27 33 -25 28 -46 88 -46 133 0 24 -4 48 -8 55 -4 7 -96 41 -203 76 -320 105
-473 190 -621 345 -87 92 -149 192 -188 308 -21 61 -53 214 -46 221 3 3 22
-15 42 -39 99 -113 277 -286 352 -342 256 -194 514 -241 807 -149 44 14 106
38 137 54 49 25 58 34 62 61 3 18 11 67 17 108 31 204 90 397 241 795 217 570
272 763 299 1048 l12 129 -44 44 c-96 99 -247 178 -407 215 -204 46 -453 35
-927 -41 -251 -41 -523 -75 -531 -67 -3 3 46 43 108 89 490 365 735 657 826
988 22 82 26 115 26 240 1 140 -7 200 -40 312 l-15 48 -74 0 c-197 0 -403 68
-975 323 -355 158 -528 226 -663 262 -103 28 -260 40 -321 24z"/>
</g>
</svg>
